<svg width="23" height="24" viewBox="0 0 23 24" fill="none" xmlns="http://www.w3.org/2000/svg">
<g clip-path="url(#clip0_132_2142)">
<path d="M6.0625 9.4439H6.07375M11.125 9.4439H11.1363M16.1875 9.4439H16.1988M8.7625 19.2381L10.405 21.4295C10.6492 21.7555 10.7714 21.9184 10.9211 21.9767C11.0522 22.0277 11.1978 22.0277 11.3289 21.9767C11.4786 21.9184 11.6008 21.7555 11.845 21.4295L13.4875 19.2381C13.8172 18.798 13.9822 18.578 14.1833 18.4101C14.4515 18.1861 14.7681 18.0276 15.1081 17.9474C15.363 17.8871 15.6378 17.8871 16.1875 17.8871C17.76 17.8871 18.5463 17.8871 19.1666 17.6301C19.9935 17.2873 20.6506 16.6298 20.9931 15.8023C21.25 15.1816 21.25 14.3948 21.25 12.8212V6.40434C21.25 4.51288 21.25 3.56714 20.8821 2.8447C20.5586 2.20922 20.0423 1.69257 19.4072 1.36877C18.6852 1.00067 17.7402 1.00067 15.85 1.00067H6.4C4.50982 1.00067 3.56473 1.00067 2.84278 1.36877C2.20773 1.69257 1.69143 2.20922 1.36785 2.8447C1 3.56714 1 4.51288 1 6.40434V12.8212C1 14.3948 1 15.1816 1.2569 15.8023C1.59944 16.6298 2.25648 17.2873 3.08344 17.6301C3.70367 17.8871 4.48995 17.8871 6.0625 17.8871C6.61215 17.8871 6.88698 17.8871 7.14195 17.9474C7.4819 18.0276 7.7985 18.1861 8.0667 18.4101C8.2678 18.578 8.4327 18.798 8.7625 19.2381ZM6.625 9.4439C6.625 9.75471 6.37316 10.0068 6.0625 10.0068C5.75184 10.0068 5.5 9.75471 5.5 9.4439C5.5 9.13309 5.75184 8.88102 6.0625 8.88102C6.37316 8.88102 6.625 9.13309 6.625 9.4439ZM11.6875 9.4439C11.6875 9.75471 11.4356 10.0068 11.125 10.0068C10.8144 10.0068 10.5625 9.75471 10.5625 9.4439C10.5625 9.13309 10.8144 8.88102 11.125 8.88102C11.4356 8.88102 11.6875 9.13309 11.6875 9.4439ZM16.75 9.4439C16.75 9.75471 16.4981 10.0068 16.1875 10.0068C15.8769 10.0068 15.625 9.75471 15.625 9.4439C15.625 9.13309 15.8769 8.88102 16.1875 8.88102C16.4981 8.88102 16.75 9.13309 16.75 9.4439Z" stroke="#92A4A6" stroke-width="2.00068" stroke-linecap="round" stroke-linejoin="round"/>
</g>
<defs>
<clipPath id="clip0_132_2142">
<rect width="22.25" height="23.0156" fill="white"/>
</clipPath>
</defs>
</svg>
