<svg width="39" height="39" viewBox="0 0 39 39" fill="none" xmlns="http://www.w3.org/2000/svg">
<g clip-path="url(#clip0_237_123)">
<g clip-path="url(#clip1_237_123)">
<path d="M10.9936 32.6395L4.31348 38.4515V11.3294C4.31348 9.18949 5.80887 7.45477 7.65353 7.45477H31.0339C32.8786 7.45477 34.374 9.18949 34.374 11.3294V26.8277C34.374 28.9677 32.8786 30.7023 31.0339 30.7023H12.3771L10.9936 32.6395Z" stroke="#5EB9CA" stroke-width="2.00263" stroke-linecap="round" stroke-linejoin="round"/>
</g>
</g>
<g clip-path="url(#clip2_237_123)">
<g clip-path="url(#clip3_237_123)">
<path d="M19.3516 6.68464V3.34662" stroke="#5EB9CA" stroke-width="2.01067" stroke-linecap="round"/>
</g>
</g>
<g clip-path="url(#clip4_237_123)">
<g clip-path="url(#clip5_237_123)">
<path d="M19.3516 3.34375C20.2965 3.34375 21.0625 2.59523 21.0625 1.67188C21.0625 0.748525 20.2965 0 19.3516 0C18.4066 0 17.6406 0.748525 17.6406 1.67188C17.6406 2.59523 18.4066 3.34375 19.3516 3.34375Z" fill="#5EB9CA"/>
</g>
</g>
<g clip-path="url(#clip6_237_123)">
<g clip-path="url(#clip7_237_123)">
<path d="M2.71662 15.0347C1.76979 15.0347 1.0022 15.7825 1.0022 16.7049V20.0451C1.0022 20.9675 1.76979 21.7153 2.71662 21.7153" stroke="#5EB9CA" stroke-width="2.00565" stroke-linecap="round"/>
</g>
</g>
<g clip-path="url(#clip8_237_123)">
<g clip-path="url(#clip9_237_123)">
<path d="M36.0032 15.0331C36.949 15.0331 37.7157 15.7812 37.7157 16.7041V20.046C37.7157 20.9688 36.949 21.7169 36.0032 21.7169" stroke="#5EB9CA" stroke-width="2.005" stroke-linecap="round"/>
</g>
</g>
<g clip-path="url(#clip10_237_123)">
<g clip-path="url(#clip11_237_123)">
<path d="M13.3906 18.0469C14.3399 18.0469 15.1094 17.2983 15.1094 16.375C15.1094 15.4516 14.3399 14.7031 13.3906 14.7031C12.4414 14.7031 11.6719 15.4516 11.6719 16.375C11.6719 17.2983 12.4414 18.0469 13.3906 18.0469Z" fill="#5EB9CA"/>
</g>
</g>
<g clip-path="url(#clip12_237_123)">
<g clip-path="url(#clip13_237_123)">
<path d="M25.3438 18.0469C26.293 18.0469 27.0625 17.2983 27.0625 16.375C27.0625 15.4516 26.293 14.7031 25.3438 14.7031C24.3945 14.7031 23.625 15.4516 23.625 16.375C23.625 17.2983 24.3945 18.0469 25.3438 18.0469Z" fill="#5EB9CA"/>
</g>
</g>
<g clip-path="url(#clip14_237_123)">
<g clip-path="url(#clip15_237_123)">
<path d="M15.9407 21.394C16.7934 22.2343 17.9872 23.0747 19.3515 23.0747C20.7159 23.0747 21.9097 22.2343 22.7624 21.394" stroke="#5EB9CA" stroke-width="2.00664" stroke-linecap="round"/>
</g>
</g>
<defs>
<clipPath id="clip0_237_123">
<rect width="32.0625" height="33" fill="white" transform="translate(3.3125 6.45312)"/>
</clipPath>
<clipPath id="clip1_237_123">
<rect width="32.0625" height="33" fill="white" transform="translate(3.3125 6.45312)"/>
</clipPath>
<clipPath id="clip2_237_123">
<rect width="2.01562" height="5.34375" fill="white" transform="translate(18.3438 2.34375)"/>
</clipPath>
<clipPath id="clip3_237_123">
<rect width="2.01562" height="5.34375" fill="white" transform="translate(18.3438 2.34375)"/>
</clipPath>
<clipPath id="clip4_237_123">
<rect width="3.42188" height="3.34375" fill="white" transform="translate(17.6406)"/>
</clipPath>
<clipPath id="clip5_237_123">
<rect width="3.42188" height="3.34375" fill="white" transform="translate(17.6406)"/>
</clipPath>
<clipPath id="clip6_237_123">
<rect width="3.71875" height="8.6875" fill="white" transform="translate(0 14.0312)"/>
</clipPath>
<clipPath id="clip7_237_123">
<rect width="3.71875" height="8.6875" fill="white" transform="translate(0 14.0312)"/>
</clipPath>
<clipPath id="clip8_237_123">
<rect width="3.71875" height="8.6875" fill="white" transform="translate(35 14.0312)"/>
</clipPath>
<clipPath id="clip9_237_123">
<rect width="3.71875" height="8.6875" fill="white" transform="translate(35 14.0312)"/>
</clipPath>
<clipPath id="clip10_237_123">
<rect width="3.4375" height="3.34375" fill="white" transform="translate(11.6719 14.7031)"/>
</clipPath>
<clipPath id="clip11_237_123">
<rect width="3.4375" height="3.34375" fill="white" transform="translate(11.6719 14.7031)"/>
</clipPath>
<clipPath id="clip12_237_123">
<rect width="3.4375" height="3.34375" fill="white" transform="translate(23.625 14.7031)"/>
</clipPath>
<clipPath id="clip13_237_123">
<rect width="3.4375" height="3.34375" fill="white" transform="translate(23.625 14.7031)"/>
</clipPath>
<clipPath id="clip14_237_123">
<rect width="8.82812" height="3.6875" fill="white" transform="translate(14.9375 20.3906)"/>
</clipPath>
<clipPath id="clip15_237_123">
<rect width="8.82812" height="3.6875" fill="white" transform="translate(14.9375 20.3906)"/>
</clipPath>
</defs>
</svg>
