<svg width="160" height="160" viewBox="0 0 160 160" fill="none" xmlns="http://www.w3.org/2000/svg">
<path d="M85.1398 52.0503C73.6955 51.3466 63.9524 58.0706 61.9419 69.7984C60.5 76 65.5 78 68 84.5C70.5 91 65.5 92 65.5 92H60.5H56C60.5 104.5 78.5 104.5 78.5 104.5C95.1179 105.403 107 86 101.997 72.6913C101.842 61.4325 96.2748 52.7539 85.1398 52.0503Z" fill="#DBEEF0"/>
<path d="M61.9419 69.7984L62.9159 70.0249C62.9203 70.0058 62.9242 69.9867 62.9275 69.9674L61.9419 69.7984ZM85.1398 52.0503L85.2029 51.0522L85.2012 51.0521L85.1398 52.0503ZM101.997 72.6913L100.997 72.705C100.999 72.8206 101.02 72.935 101.061 73.0432L101.997 72.6913ZM78.5 104.5L78.5542 103.501C78.5362 103.5 78.5181 103.5 78.5 103.5V104.5ZM56 92V91C55.6744 91 55.3691 91.1586 55.1819 91.425C54.9946 91.6914 54.9488 92.0323 55.0591 92.3387L56 92ZM65.5 92V93H65.599L65.6961 92.9806L65.5 92ZM61.9419 69.7984L62.9275 69.9674C64.8426 58.7961 74.0875 52.3726 85.0785 53.0484L85.1398 52.0503L85.2012 51.0521C73.3035 50.3206 63.0622 57.345 60.9562 69.6295L61.9419 69.7984ZM85.1398 52.0503L85.0768 53.0483C90.3709 53.3828 94.2736 55.5969 96.8918 59.0201C99.5295 62.4689 100.922 67.2252 100.997 72.705L101.997 72.6913L102.997 72.6776C102.918 66.8986 101.449 61.6862 98.4804 57.8051C95.4924 53.8984 91.0438 51.4214 85.2029 51.0522L85.1398 52.0503ZM101.997 72.6913L101.061 73.0432C103.418 79.3139 101.822 87.1494 97.5336 93.3566C93.2568 99.5473 86.4334 103.93 78.5542 103.501L78.5 104.5L78.4457 105.499C87.1845 105.973 94.6111 101.106 99.1791 94.4934C103.736 87.8978 105.579 79.3774 102.933 72.3394L101.997 72.6913ZM68 84.5L68.9333 84.141C67.6311 80.7551 65.6247 78.4459 64.3265 76.4852C63.6607 75.4796 63.1604 74.5511 62.8958 73.5437C62.635 72.5512 62.5895 71.4289 62.9159 70.0249L61.9419 69.7984L60.9678 69.572C60.5733 71.2688 60.6121 72.722 60.9614 74.0519C61.3069 75.3667 61.9425 76.5073 62.6589 77.5894C64.1253 79.8041 65.8689 81.7449 67.0666 84.859L68 84.5ZM78.5 104.5C78.5 103.5 78.5002 103.5 78.5005 103.5C78.5004 103.5 78.5006 103.5 78.5005 103.5C78.5004 103.5 78.5001 103.5 78.4994 103.5C78.4982 103.5 78.4958 103.5 78.4924 103.5C78.4856 103.5 78.4745 103.5 78.4594 103.5C78.429 103.499 78.3821 103.499 78.3197 103.497C78.1948 103.494 78.0078 103.489 77.7664 103.477C77.2834 103.453 76.5835 103.406 75.7276 103.311C74.013 103.12 71.6874 102.74 69.2324 101.982C64.2897 100.456 59.0336 97.4744 56.9409 91.6613L56 92L55.0591 92.3387C57.4664 99.0256 63.4602 102.294 68.6426 103.893C71.2501 104.698 73.7057 105.098 75.5067 105.299C76.4087 105.399 77.1502 105.449 77.6691 105.474C77.9286 105.487 78.1328 105.493 78.2738 105.497C78.3443 105.498 78.399 105.499 78.437 105.5C78.4561 105.5 78.4709 105.5 78.4814 105.5C78.4867 105.5 78.4909 105.5 78.494 105.5C78.4955 105.5 78.4968 105.5 78.4978 105.5C78.4983 105.5 78.4988 105.5 78.4991 105.5C78.4996 105.5 78.5 105.5 78.5 104.5ZM68 84.5L67.0666 84.859C68.2194 87.8562 67.5678 89.3117 66.9376 90.0259C66.5876 90.4226 66.1703 90.6764 65.8284 90.8318C65.6595 90.9086 65.5159 90.9582 65.4194 90.9875C65.3713 91.0021 65.3357 91.0114 65.3153 91.0165C65.3052 91.019 65.2989 91.0204 65.2968 91.0209C65.2958 91.0211 65.2959 91.0211 65.297 91.0208C65.2976 91.0207 65.2985 91.0205 65.2996 91.0203C65.3002 91.0202 65.3008 91.02 65.3015 91.0199C65.3019 91.0198 65.3025 91.0197 65.3026 91.0197C65.3033 91.0195 65.3039 91.0194 65.5 92C65.6961 92.9806 65.6968 92.9804 65.6975 92.9803C65.6977 92.9803 65.6984 92.9801 65.6989 92.98C65.7 92.9798 65.7011 92.9796 65.7022 92.9793C65.7046 92.9789 65.7072 92.9783 65.7102 92.9777C65.7162 92.9764 65.7233 92.9749 65.7317 92.973C65.7484 92.9693 65.7699 92.9643 65.7958 92.9579C65.8474 92.9451 65.9168 92.9266 66.0006 92.9012C66.1677 92.8504 66.3952 92.7711 66.656 92.6526C67.1735 92.4173 67.8498 92.0149 68.4373 91.3491C69.6822 89.9383 70.2805 87.6438 68.9333 84.141L68 84.5ZM56 92V93H60.5V92V91H56V92ZM60.5 92V93H65.5V92V91H60.5V92Z" fill="#92A4A6"/>
<path d="M101.562 63.8281L113.672 68.6719L103 72.5" fill="#FFD396"/>
<path d="M101.562 63.8281L113.672 68.6719L103 72.5" stroke="#92A4A6" stroke-width="2" stroke-linecap="round" stroke-linejoin="round"/>
<path d="M58 76L53.25 82.75L47 92H68" fill="#A6C9CD"/>
<path d="M58 76L53.25 82.75L47 92H68" stroke="#92A4A6" stroke-width="2" stroke-linecap="round" stroke-linejoin="round"/>
<path d="M51 92.5L43 98C43 100 47.5 101 49.5 100.5L55.5 92.5" fill="#A6C9CD"/>
<path d="M51 92.5L43 98C43 100 47.5 101 49.5 100.5L55.5 92.5" stroke="#92A4A6" stroke-width="2" stroke-linecap="round" stroke-linejoin="round"/>
<path d="M68.5 92C74.8513 92 80 86.8513 80 80.5C80 74.1487 74.8513 69 68.5 69C62.1487 69 57 74.1487 57 80.5C57 86.8513 62.1487 92 68.5 92Z" fill="#A6C9CD" stroke="#92A4A6" stroke-width="2" stroke-linecap="round" stroke-linejoin="round"/>
<path d="M92 70C93.6569 70 95 68.6569 95 67C95 65.3431 93.6569 64 92 64C90.3431 64 89 65.3431 89 67C89 68.6569 90.3431 70 92 70Z" fill="#92A4A6"/>
</svg>
