<svg width="23" height="24" viewBox="0 0 23 24" fill="none" xmlns="http://www.w3.org/2000/svg">
<g clip-path="url(#clip0_132_2134)">
<path d="M12.2471 1.5584C11.8514 1.25114 11.6534 1.09752 11.4349 1.03847C11.2421 0.986364 11.0389 0.986364 10.8462 1.03847C10.6276 1.09752 10.4296 1.25114 10.0339 1.5584L2.39321 7.48977C1.88246 7.88627 1.62709 8.08452 1.44312 8.33278C1.28014 8.55271 1.15873 8.80045 1.08487 9.06386C1.00146 9.36123 1.00146 9.68415 1.00146 10.33V18.465C1.00146 19.7244 1.00146 20.3541 1.24705 20.8352C1.46306 21.2583 1.80773 21.6024 2.23169 21.8179C2.71365 22.0631 3.3446 22.0631 4.60646 22.0631H6.85958C7.17505 22.0631 7.33278 22.0631 7.45328 22.0018C7.55926 21.9479 7.64543 21.8619 7.69943 21.7562C7.76083 21.6358 7.76082 21.4784 7.76082 21.1636V13.7425C7.76082 13.1127 7.76082 12.7979 7.88362 12.5573C7.99163 12.3457 8.16397 12.1738 8.37593 12.066C8.61692 11.9434 8.93234 11.9434 9.56332 11.9434H12.7177C13.3487 11.9434 13.6641 11.9434 13.9052 12.066C14.1172 12.1738 14.2894 12.3457 14.3973 12.5573C14.5201 12.7979 14.5201 13.1127 14.5201 13.7425V21.1636C14.5201 21.4784 14.5201 21.6358 14.5815 21.7562C14.6355 21.8619 14.7217 21.9479 14.8276 22.0018C14.9482 22.0631 15.1059 22.0631 15.4214 22.0631H17.6745C18.9364 22.0631 19.5673 22.0631 20.0493 21.8179C20.4733 21.6024 20.818 21.2583 21.034 20.8352C21.2795 20.3541 21.2795 19.7244 21.2795 18.465V10.33C21.2795 9.68415 21.2795 9.36123 21.1962 9.06386C21.1223 8.80045 21.0008 8.55271 20.8379 8.33278C20.654 8.08452 20.3986 7.88627 19.8878 7.48978L12.2471 1.5584Z" stroke="#92A4A6" stroke-width="2.00085" stroke-linecap="round" stroke-linejoin="round"/>
</g>
<defs>
<clipPath id="clip0_132_2134">
<rect width="22.2812" height="23.0625" fill="white"/>
</clipPath>
</defs>
</svg>
