<svg width="25" height="23" viewBox="0 0 25 23" fill="none" xmlns="http://www.w3.org/2000/svg">
<g clip-path="url(#clip0_132_2187)">
<path d="M23.5299 6.75816V11.2603M10.2943 3.9443H6.40811C4.51552 3.9443 3.56922 3.9443 2.84635 4.31233C2.21049 4.63605 1.69353 5.15261 1.36954 5.78796C1.00122 6.51027 1.00122 7.45581 1.00122 9.34689V10.6975C1.00122 11.7464 1.00122 12.2708 1.17271 12.6846C1.40136 13.236 1.83994 13.6743 2.39195 13.9029C2.80597 14.0741 3.33083 14.0741 4.38053 14.0741V18.8576C4.38053 19.1191 4.38053 19.2497 4.39137 19.3597C4.49673 20.4285 5.34296 21.2741 6.41258 21.3793C6.52272 21.3901 6.65348 21.3901 6.915 21.3901C7.17653 21.3901 7.30729 21.3901 7.41744 21.3793C8.48705 21.2741 9.33333 20.4285 9.43867 19.3597C9.44948 19.2497 9.44948 19.1191 9.44948 18.8576V14.0741H10.2943C12.284 14.0741 14.7181 15.1399 16.5959 16.1628C17.6914 16.7594 18.2392 17.0578 18.5979 17.0139C18.9306 16.9731 19.1821 16.8239 19.3771 16.5515C19.5874 16.2579 19.5874 15.6701 19.5874 14.4947V3.52368C19.5874 2.34829 19.5874 1.76058 19.3771 1.46686C19.1821 1.19449 18.9306 1.04525 18.5979 1.00454C18.2392 0.960629 17.6914 1.25898 16.5959 1.8557C14.7181 2.87854 12.284 3.9443 10.2943 3.9443Z" stroke="#92A4A6" stroke-width="2.00175" stroke-linecap="round" stroke-linejoin="round"/>
</g>
<defs>
<clipPath id="clip0_132_2187">
<rect width="24.5312" height="22.3906" fill="white"/>
</clipPath>
</defs>
</svg>
