<svg width="20" height="23" viewBox="0 0 20 23" fill="none" xmlns="http://www.w3.org/2000/svg">
<g clip-path="url(#clip0_171_3283)">
<path d="M19.0001 21.25C19.0001 19.68 19.0001 18.895 18.8064 18.2563C18.3701 16.8181 17.2445 15.6925 15.8063 15.2562C15.1676 15.0625 14.3826 15.0625 12.8126 15.0625H7.18758C5.61757 15.0625 4.83256 15.0625 4.1938 15.2562C2.75559 15.6925 1.63012 16.8181 1.19385 18.2563C1.00008 18.895 1.00008 19.68 1.00008 21.25M15.0626 6.0625C15.0626 8.8584 12.7961 11.125 10.0001 11.125C7.20418 11.125 4.93758 8.8584 4.93758 6.0625C4.93758 3.26656 7.20418 1 10.0001 1C12.7961 1 15.0626 3.26656 15.0626 6.0625Z" stroke="#92A4A6" stroke-width="1.99999" stroke-linecap="round" stroke-linejoin="round"/>
</g>
<defs>
<clipPath id="clip0_171_3283">
<rect width="20" height="22.25" fill="white"/>
</clipPath>
</defs>
</svg>
