<svg width="24" height="24" viewBox="0 0 24 24" fill="none" xmlns="http://www.w3.org/2000/svg">
<g clip-path="url(#clip0_132_167)">
<path d="M10.5052 12.0008H5.0005M4.91577 12.2926L2.57885 19.2746C2.39527 19.8232 2.30347 20.0974 2.36934 20.2663C2.42655 20.413 2.54942 20.5242 2.70103 20.5665C2.87562 20.6152 3.13931 20.4966 3.66669 20.2591L20.3924 12.7312C20.9073 12.4994 21.1646 12.3836 21.2441 12.2226C21.3133 12.0829 21.3133 11.9188 21.2441 11.779C21.1646 11.6181 20.9073 11.5022 20.3924 11.2705L3.66086 3.7399C3.13507 3.50324 2.87217 3.38492 2.69776 3.43346C2.54629 3.47561 2.42343 3.58652 2.36603 3.73291C2.29993 3.90148 2.39074 4.17514 2.57237 4.72248L4.91642 11.7862C4.94762 11.8802 4.96321 11.9271 4.96938 11.9752C4.97484 12.0179 4.97478 12.061 4.96921 12.1037C4.96293 12.1517 4.94721 12.1987 4.91577 12.2926Z" stroke="#F6FBFF" stroke-width="2.0019" stroke-linecap="round" stroke-linejoin="round"/>
</g>
<defs>
<clipPath id="clip0_132_167">
<rect width="20.9531" height="19.1562" fill="white" transform="translate(1.34375 2.42188)"/>
</clipPath>
</defs>
</svg>
