<svg width="73" height="55" viewBox="0 0 73 55" fill="none" xmlns="http://www.w3.org/2000/svg">
<path d="M43.1398 1.05014C31.6955 0.346465 21.9524 7.07044 19.9419 18.7983C18.5 24.9999 23.5 26.9999 26 33.4999C28.5 39.9999 23.5 40.9999 23.5 40.9999H18.5H14C18.5 53.4999 36.5 53.4999 36.5 53.4999C53.1179 54.4029 65 34.9999 59.997 21.6912C59.8424 10.4324 54.2748 1.75381 43.1398 1.05014Z" fill="#DBEEF0"/>
<path d="M19.9419 18.7983L20.9159 19.0248C20.9203 19.0057 20.9242 18.9865 20.9275 18.9673L19.9419 18.7983ZM43.1398 1.05014L43.2029 0.0521256L43.2012 0.0520213L43.1398 1.05014ZM59.997 21.6912L58.9971 21.7049C58.9987 21.8205 59.0203 21.9349 59.061 22.043L59.997 21.6912ZM36.5 53.4999L36.5542 52.5014C36.5362 52.5004 36.5181 52.4999 36.5 52.4999V53.4999ZM14 40.9999V39.9999C13.6744 39.9999 13.3691 40.1584 13.1819 40.4249C12.9946 40.6913 12.9488 41.0322 13.0591 41.3386L14 40.9999ZM23.5 40.9999V41.9999H23.599L23.6961 41.9805L23.5 40.9999ZM19.9419 18.7983L20.9275 18.9673C22.8426 7.79602 32.0875 1.37245 43.0785 2.04825L43.1398 1.05014L43.2012 0.0520213C31.3035 -0.679525 21.0622 6.34485 18.9562 18.6293L19.9419 18.7983ZM43.1398 1.05014L43.0768 2.04815C48.3709 2.3827 52.2736 4.59682 54.8918 8.02002C57.5295 11.4688 58.9218 16.2251 58.9971 21.7049L59.997 21.6912L60.9969 21.6774C60.9175 15.8985 59.4488 10.6861 56.4804 6.80499C53.4924 2.89827 49.0438 0.421241 43.2029 0.0521271L43.1398 1.05014ZM59.997 21.6912L59.061 22.043C61.4182 28.3138 59.8218 36.1493 55.5336 42.3565C51.2568 48.5472 44.4334 52.9295 36.5542 52.5014L36.5 53.4999L36.4457 54.4984C45.1845 54.9732 52.6111 50.1055 57.1791 43.4933C61.7356 36.8976 63.5788 28.3773 60.9331 21.3393L59.997 21.6912ZM26 33.4999L26.9333 33.1409C25.6311 29.755 23.6247 27.4458 22.3265 25.4851C21.6607 24.4795 21.1604 23.551 20.8958 22.5436C20.635 21.5511 20.5895 20.4287 20.9159 19.0248L19.9419 18.7983L18.9678 18.5718C18.5733 20.2687 18.6121 21.7219 18.9614 23.0517C19.3069 24.3666 19.9425 25.5072 20.6589 26.5892C22.1253 28.804 23.8689 30.7448 25.0666 33.8589L26 33.4999ZM36.5 53.4999C36.5 52.4999 36.5002 52.4999 36.5005 52.4999C36.5004 52.4999 36.5006 52.4999 36.5005 52.4999C36.5004 52.4999 36.5001 52.4999 36.4994 52.4999C36.4982 52.4999 36.4958 52.4999 36.4924 52.4998C36.4856 52.4998 36.4745 52.4997 36.4594 52.4996C36.429 52.4992 36.3821 52.4985 36.3197 52.4971C36.1948 52.4942 36.0078 52.4884 35.7664 52.4767C35.2834 52.4531 34.5835 52.4058 33.7276 52.3107C32.013 52.1202 29.6874 51.7396 27.2324 50.9819C22.2897 49.4563 17.0336 46.4743 14.9409 40.6612L14 40.9999L13.0591 41.3386C15.4664 48.0255 21.4602 51.2934 26.6426 52.8929C29.2501 53.6977 31.7057 54.0983 33.5067 54.2985C34.4087 54.3987 35.1502 54.449 35.6691 54.4743C35.9286 54.4869 36.1328 54.4933 36.2738 54.4966C36.3443 54.4982 36.399 54.499 36.437 54.4994C36.4561 54.4996 36.4709 54.4998 36.4814 54.4998C36.4867 54.4998 36.4909 54.4999 36.494 54.4999C36.4955 54.4999 36.4968 54.4999 36.4978 54.4999C36.4983 54.4999 36.4988 54.4999 36.4991 54.4999C36.4996 54.4999 36.5 54.4999 36.5 53.4999ZM26 33.4999L25.0666 33.8589C26.2194 36.8561 25.5678 38.3116 24.9376 39.0258C24.5876 39.4224 24.1703 39.6763 23.8284 39.8317C23.6595 39.9085 23.5159 39.958 23.4194 39.9874C23.3713 40.002 23.3357 40.0113 23.3153 40.0163C23.3052 40.0189 23.2989 40.0203 23.2968 40.0207C23.2958 40.021 23.2959 40.0209 23.297 40.0207C23.2976 40.0206 23.2985 40.0204 23.2996 40.0202C23.3002 40.0201 23.3008 40.0199 23.3015 40.0198C23.3019 40.0197 23.3025 40.0196 23.3026 40.0195C23.3033 40.0194 23.3039 40.0193 23.5 40.9999C23.6961 41.9805 23.6968 41.9803 23.6975 41.9802C23.6977 41.9801 23.6984 41.98 23.6989 41.9799C23.7 41.9797 23.7011 41.9795 23.7022 41.9792C23.7046 41.9787 23.7072 41.9782 23.7102 41.9776C23.7162 41.9763 23.7233 41.9747 23.7317 41.9729C23.7484 41.9692 23.7699 41.9642 23.7958 41.9578C23.8474 41.945 23.9168 41.9265 24.0006 41.9011C24.1677 41.8503 24.3952 41.771 24.656 41.6524C25.1735 41.4172 25.8498 41.0148 26.4373 40.349C27.6822 38.9382 28.2805 36.6437 26.9333 33.1409L26 33.4999ZM14 40.9999V41.9999H18.5V40.9999V39.9999H14V40.9999ZM18.5 40.9999V41.9999H23.5V40.9999V39.9999H18.5V40.9999Z" fill="#92A4A6"/>
<path d="M59.5625 12.828L71.6719 17.6718L61 21.4999" fill="#FFD396"/>
<path d="M59.5625 12.828L71.6719 17.6718L61 21.4999" stroke="#92A4A6" stroke-width="2" stroke-linecap="round" stroke-linejoin="round"/>
<path d="M16 24.9999L11.25 31.7499L5 40.9999H26" fill="#A6C9CD"/>
<path d="M16 24.9999L11.25 31.7499L5 40.9999H26" stroke="#92A4A6" stroke-width="2" stroke-linecap="round" stroke-linejoin="round"/>
<path d="M9 41.4999L1 46.9999C1.00001 48.9999 5.49999 49.9999 7.5 49.4999L13.5 41.4999" fill="#A6C9CD"/>
<path d="M9 41.4999L1 46.9999C1.00001 48.9999 5.49999 49.9999 7.5 49.4999L13.5 41.4999" stroke="#92A4A6" stroke-width="2" stroke-linecap="round" stroke-linejoin="round"/>
<path d="M26.5 40.9999C32.8513 40.9999 38 35.8512 38 29.4999C38 23.1486 32.8513 17.9999 26.5 17.9999C20.1487 17.9999 15 23.1486 15 29.4999C15 35.8512 20.1487 40.9999 26.5 40.9999Z" fill="#A6C9CD" stroke="#92A4A6" stroke-width="2" stroke-linecap="round" stroke-linejoin="round"/>
<path d="M50 18.9999C51.6569 18.9999 53 17.6567 53 15.9999C53 14.343 51.6569 12.9999 50 12.9999C48.3431 12.9999 47 14.343 47 15.9999C47 17.6567 48.3431 18.9999 50 18.9999Z" fill="#92A4A6"/>
</svg>
